<?xml version="1.0" encoding="utf-8"?>
<!-- Generator: Adobe Illustrator 23.0.3, SVG Export Plug-In . SVG Version: 6.00 Build 0)  -->
<svg version="1.1" id="Layer_1" xmlns="http://www.w3.org/2000/svg" xmlns:xlink="http://www.w3.org/1999/xlink" x="0px" y="0px"
	 viewBox="0 0 484.8 58.2" style="enable-background:new 0 0 484.8 58.2;" xml:space="preserve">
<style type="text/css">
	.st0{fill:#ef2456;}
	.st1{fill:#ef2456;stroke:#ef2456;stroke-width:0.8;stroke-miterlimit:10;}
	.st2{fill:#ef2456;stroke:#ef2456;stroke-miterlimit:10;}
</style>
<g>
	<path class="st0" d="M428.9,21.8c-2.2,5.9-4.5,11.8-6.7,17.7c-0.1,0-0.2,0-0.3,0c-2.2-5.9-4.4-11.7-6.5-17.6c-0.1,0-0.1,0-0.2,0
		c-0.2,2-0.5,4-0.7,5.9c-0.4,3.3-0.7,6.5-1,9.8c-0.1,0.9-0.4,1.3-1.4,1.2c-3.9-0.3-7.7-0.9-11.6-0.7c-3.2,0.2-6.4,0.4-9.6,0.7
		c-0.9,0.1-1.2-0.2-1.4-1c-0.4-1.5-0.8-3-1.2-4.5c-0.2-0.6-0.4-0.8-1.1-0.8c-2.8,0-5.5,0-8.3,0c-0.6,0-0.9,0.2-1.1,0.8
		c-0.4,1.6-0.9,3.1-1.4,4.7c-0.2,0.6-0.4,0.9-1.1,0.8c-3.5-0.3-7.1-0.5-10.6-0.8c-1.1-0.1-0.5-0.7-0.4-1.1
		c1.7-5.3,3.4-10.6,5.1-15.8c2.1-6.4,4.2-12.7,6.2-19.1c0.2-0.7,0.5-1,1.3-1c4,0,8,0,12,0c0.8,0,1.1,0.2,1.4,1
		c3.7,11.1,7.4,22.2,11,33.3c0.2,0.5,0.3,1,0.7,1.4c0.7-5.1,1.3-10.2,2-15.4c0.8-6.5,1.6-12.9,2.4-19.4c0.1-0.7,0.4-0.9,1.1-0.9
		c2.9,0,5.8,0,8.6,0c0.8,0,1.1,0.2,1.4,1c1.5,4.1,3,8.2,4.5,12.3c0.6-0.8,0.8-1.7,1.1-2.5c1.2-3.3,2.4-6.5,3.6-9.8
		c0.3-0.8,0.7-1.1,1.5-1.1c2.8,0.1,5.6,0,8.4,0c0.8,0,1.1,0.3,1.2,1.1c1.2,9.7,2.4,19.4,3.6,29.1c0.2,1.7,0.4,3.4,0.6,5.2
		c0.5-0.4,0.5-0.9,0.6-1.4c3.6-11,7.2-21.9,10.7-32.9c0.3-0.9,0.7-1.1,1.6-1.1c3.9,0,7.8,0.1,11.8,0c0.8,0,1.2,0.3,1.4,1
		c3.8,11.6,7.6,23.1,11.5,34.6c0.4,1.1,0.2,1.3-1,1.4c-3.4,0.2-6.8,0.4-10.2,0.7c-0.8,0.1-1.1-0.2-1.3-0.9c-0.4-1.5-0.8-2.9-1.2-4.4
		c-0.2-0.7-0.5-1-1.3-1c-2.7,0.1-5.4,0.1-8,0c-0.8,0-1,0.3-1.2,1c-0.4,1.5-0.9,3-1.3,4.5c-0.2,0.7-0.5,1-1.3,0.9
		c-2.3-0.2-4.6-0.3-6.8-0.5c-4.6-0.5-9.1,0.2-13.6,0.4c-1.9,0.1-1.9,0.2-2-1.7c-0.5-5.1-0.9-10.2-1.4-15.3
		C429.1,21.8,429,21.8,428.9,21.8z M383.1,12.2c-0.1,0-0.2,0-0.2,0c-0.7,2.9-1.5,5.8-2.2,8.7c-0.6,2.5-0.6,2.5,2,2.5
		c0.1,0,0.2,0,0.2,0c2.9,0,2.9,0,2.2-2.8C384.5,17.7,383.8,14.9,383.1,12.2z M460.9,12.2c-0.1,0-0.2,0-0.3,0
		c-0.9,3.5-1.7,6.9-2.6,10.4c-0.2,0.6,0,0.8,0.6,0.8c1.4,0,2.8,0,4.2,0c0.6,0,0.7-0.2,0.6-0.7C462.6,19.1,461.7,15.6,460.9,12.2z"/>
	<path class="st0" d="M218,1.1c2,0,4.1,0,6.1,0c0.7,0,1,0.2,1.2,0.8c3.9,11.7,7.7,23.4,11.6,35.1c0.2,0.7,0.2,1.1-0.7,1.1
		c-3.5,0.2-7,0.4-10.5,0.7c-0.8,0.1-1.1-0.2-1.3-0.9c-0.4-1.5-0.9-2.9-1.2-4.4c-0.2-0.7-0.5-1-1.3-1c-2.6,0.1-5.3,0.1-7.9,0
		c-0.9,0-1.2,0.3-1.4,1.1c-0.4,1.5-0.9,3-1.3,4.5c-0.1,0.5-0.3,0.8-1,0.8c-3.6-0.3-7.2-0.5-10.8-0.8c-1.1-0.1-0.4-0.8-0.3-1.1
		c1.8-5.6,3.6-11.2,5.4-16.7c2-6.1,4-12.1,5.9-18.2c0.2-0.8,0.6-1,1.3-1C214,1.2,216,1.1,218,1.1z M218,12.2c-0.1,0-0.2,0-0.3,0
		c-0.8,3.2-1.6,6.5-2.4,9.7c-0.4,1.4-0.3,1.4,1.2,1.4c0.4,0,0.9,0,1.3,0c2.9,0,2.9,0,2.2-2.8C219.4,17.7,218.7,14.9,218,12.2z"/>
	<path class="st0" d="M314,1.1c2,0,4.1,0,6.1,0c0.6,0,0.9,0.2,1.1,0.8c3.9,11.7,7.8,23.5,11.7,35.2c0.2,0.7,0.2,1-0.6,1
		c-3.5,0.2-7.1,0.5-10.6,0.7c-0.7,0.1-1.1-0.1-1.3-0.9c-0.4-1.5-0.9-3-1.2-4.5c-0.2-0.7-0.4-1-1.2-1c-2.7,0.1-5.4,0.1-8,0
		c-0.8,0-1.1,0.3-1.3,1c-0.4,1.5-0.9,3-1.3,4.5c-0.2,0.6-0.5,0.9-1.2,0.8c-3.5-0.3-7-0.5-10.5-0.8c-1.2-0.1-0.5-0.8-0.4-1.2
		c2.5-7.9,5.1-15.7,7.6-23.6c1.2-3.8,2.5-7.6,3.7-11.4c0.2-0.7,0.5-0.9,1.3-0.9C310,1.2,312,1.1,314,1.1z M314,12.2
		c-0.1,0-0.2,0-0.3,0c-0.9,3.5-1.7,6.9-2.6,10.4c-0.2,0.6,0,0.8,0.6,0.8c1.4,0,2.8,0,4.2,0c0.5,0,0.7-0.2,0.6-0.7
		C315.7,19.1,314.9,15.6,314,12.2z"/>
	<path class="st0" d="M60.1,23.7c0,4.3,0,8.6,0,12.9c0,1.2-0.3,1.5-1.5,1.5c-2.8,0.1-5.7,0.4-8.5,0.7c-0.8,0.1-1-0.2-1-1
		c0-11.9,0-23.8,0-35.8c0-0.8,0.2-1,1-1c4.7,0,9.4-0.1,14,0.1c4.6,0.1,8.7,1.7,10.9,6.1c1.8,3.6,2,7.3,0.2,11
		c-0.7,1.4-1.6,2.5-3,3.2c-1.1,0.5-0.9,1.1-0.6,2c1.9,4.5,3.8,9,5.8,13.6c0.4,0.9,0.4,1.2-0.7,1.2c-3.3,0.2-6.5,0.4-9.8,0.7
		c-0.8,0.1-1.2-0.2-1.5-1c-1.6-4.5-3.3-8.9-4.9-13.4c-0.1-0.3-0.2-0.6-0.3-0.9C60.3,23.7,60.2,23.7,60.1,23.7z M60.1,16
		c0,0.8,0,1.7,0,2.5c0,2,0.1,2.1,2.1,1.8c0.2,0,0.4-0.1,0.6-0.1c2-0.6,2.9-2.6,2.5-5.3c-0.3-2.1-1.7-3.2-4.1-3.2c-0.8,0-1.1,0.2-1,1
		C60.1,13.8,60.1,14.9,60.1,16z"/>
	<path class="st0" d="M93.3,23.7c0,4.3,0,8.6,0,12.9c0,1.1-0.3,1.5-1.4,1.5c-2.8,0.1-5.7,0.4-8.5,0.7c-0.8,0.1-1-0.1-1-0.9
		c0-12,0-23.9,0-35.9c0-0.8,0.3-0.9,1-0.9c4.7,0,9.4-0.1,14.2,0c4.6,0.1,8.6,1.7,10.8,6.1c1.8,3.6,2,7.3,0.2,11
		c-0.7,1.4-1.7,2.6-3.1,3.3c-0.9,0.5-0.9,1-0.5,1.8c1.9,4.5,3.8,9,5.8,13.6c0.5,1.3,0.5,1.2-0.9,1.3c-3.2,0.2-6.4,0.4-9.6,0.7
		c-0.8,0.1-1.2-0.2-1.5-1c-1.6-4.5-3.3-8.9-4.9-13.4c-0.1-0.3-0.2-0.6-0.3-0.9C93.4,23.7,93.3,23.7,93.3,23.7z M93.2,16
		c0,0.8,0,1.7,0,2.5c0,2.1,0.2,2.2,2.3,1.9c0.2,0,0.3-0.1,0.5-0.1c1.9-0.6,2.9-2.7,2.4-5.4c-0.3-2.1-1.8-3.2-4.2-3.2
		c-0.7,0-1,0.2-1,0.9C93.2,13.7,93.2,14.9,93.2,16z"/>
	<path class="st0" d="M250.1,23.7c-0.2,0.4-0.1,0.8-0.1,1.2c0,4,0,8.1,0,12.1c0,0.6,0.1,1.1-0.9,1.2c-3,0.2-6,0.4-9,0.7
		c-0.8,0.1-1.1-0.1-1.1-1c0-11.9,0-23.8,0-35.8c0-0.8,0.3-1,1-1c4.6,0,9.3-0.1,13.9,0c4.6,0.1,8.7,1.6,11,6c1.6,3.1,1.9,6.3,0.8,9.7
		c-0.6,2-1.8,3.7-3.7,4.7c-0.9,0.5-0.8,0.9-0.5,1.7c1.9,4.6,3.8,9.1,5.8,13.7c0.5,1.1,0.2,1.3-0.9,1.3c-3.2,0.2-6.4,0.4-9.6,0.7
		c-0.9,0.1-1.3-0.2-1.6-1c-1.6-4.4-3.2-8.8-4.9-13.3C250.5,24.3,250.4,23.9,250.1,23.7z M249.9,16c0,0.8,0,1.7,0,2.5
		c0,2,0.1,2.1,2.1,1.8c0.2,0,0.4-0.1,0.6-0.1c2-0.6,3.1-3,2.4-5.7c-0.5-2.1-2.4-3.3-4.6-2.9c-0.6,0.1-0.5,0.5-0.5,0.9
		C249.9,13.7,249.9,14.9,249.9,16z"/>
	<path class="st0" d="M346,23.7c0,4.3,0,8.6,0,12.9c0,1.2-0.3,1.5-1.5,1.5c-2.8,0.1-5.7,0.4-8.5,0.7c-0.8,0.1-1-0.2-1-1
		c0-11.9,0-23.8,0-35.8c0-0.8,0.2-1,1-1c4.7,0,9.4-0.1,14,0.1c4.6,0.1,8.7,1.7,10.9,6.1c1.8,3.6,2,7.3,0.2,11
		c-0.7,1.4-1.6,2.5-3,3.2c-1.1,0.5-0.9,1.1-0.6,2c1.9,4.5,3.8,9,5.8,13.6c0.4,0.9,0.4,1.2-0.7,1.2c-3.3,0.2-6.5,0.4-9.8,0.7
		c-0.8,0.1-1.2-0.2-1.5-1c-1.6-4.5-3.3-8.9-4.9-13.4c-0.1-0.3-0.2-0.6-0.3-0.9C346.1,23.7,346.1,23.7,346,23.7z M345.9,15.9
		L345.9,15.9c0,1.2,0,2.4,0,3.6c0,0.4-0.1,0.8,0.5,0.9c2,0.4,3.9-0.7,4.5-2.6c0.3-0.8,0.3-1.7,0.2-2.5c-0.3-3-2.3-3.7-4.7-3.6
		c-0.5,0-0.5,0.4-0.5,0.7C345.9,13.6,345.9,14.8,345.9,15.9z"/>
	<path class="st0" d="M180.7,6.6c0,1.4,0,2.9,0,4.3c0,0.8-0.2,0.9-1,0.7c-2.7-0.8-5.4-1.2-8.3-1.1c-0.8,0-1.6,0.1-2.3,0.5
		c-1,0.6-1,1.6-0.1,2.2c1,0.7,2.2,1.1,3.4,1.5c2.7,1.1,5.4,2.2,7.5,4.3c4.4,4.2,4.2,14.5-4,18c-4.2,1.8-8.6,1.9-13.1,1.6
		c-1.6-0.1-3.2-0.5-4.9-0.7c-0.6-0.1-0.9-0.4-0.9-1c0-2.9,0-5.8,0-8.8c0-0.9,0.3-1,1.1-0.8c2.9,0.6,5.9,1,8.9,0.9
		c0.8,0,1.5-0.1,2.2-0.4c0.7-0.2,1.2-0.6,1.3-1.4c0.1-0.7-0.4-1.2-0.9-1.6c-0.9-0.6-1.9-0.9-3-1.3c-2.1-0.8-4.2-1.6-6-2.9
		c-6-4.1-5.3-15.5,2.3-18.9c3.5-1.6,7.2-1.8,10.9-1.5c1.8,0.1,3.6,0.4,5.5,0.6c0.9,0.1,1.3,0.4,1.2,1.4
		C180.7,3.8,180.7,5.2,180.7,6.6z"/>
	<path class="st0" d="M22.1,19.6c0-5.8,0-11.5,0-17.3c0-0.9,0.2-1.2,1.1-1.2c6.1,0,12.2,0,18.2,0c0.7,0,1.1,0.2,1.2,0.9
		c0.6,2.7,1.2,5.5,1.9,8.2c0.2,0.8-0.1,0.9-0.7,0.9c-3,0-6,0-9,0c-0.8,0-1.2,0.1-1.2,1.1c0,2.5,0,2.5,2.5,2.5c1.3,0,2.6,0,3.8,0
		c0.7,0,0.9,0.2,0.9,0.9c0,2.5,0,5,0,7.6c0,0.7-0.2,0.9-0.9,0.9c-1.8,0-3.6,0-5.4,0c-0.7,0-0.9,0.2-0.9,1c0,3-0.1,3,2.9,3
		c2.6,0,5.3,0,7.9,0c0.8,0,1.1,0.1,0.9,1c-0.7,2.8-1.3,5.5-1.9,8.3c-0.2,0.7-0.5,1-1.3,1c-6.3,0-12.6,0-18.9,0
		c-0.8,0-1.1-0.2-1.1-1.1C22.1,31.2,22.1,25.4,22.1,19.6z"/>
	<path class="st0" d="M127.8,12.7c1.2-3.9,2.4-7.6,3.4-11.3c0.3-1,0.7-1.2,1.7-1.1c3.2,0.4,6.4,0.6,9.5,0.8c0.9,0.1,1.1,0.3,0.8,1.2
		c-4.5,11.8-8.9,23.7-13.4,35.5c-0.2,0.6-0.5,1.1-1.3,1c-3.6-0.4-7.1-0.8-10.7-1.1c-1-0.1-1-0.4-0.6-1.2c1.5-3.2,2.9-6.5,4.4-9.7
		c0.3-0.6,0.3-1.1,0-1.8c-3.4-7.5-6.8-15-10.3-22.6c-0.6-1.2-0.6-1.2,0.8-1.3c3.5-0.3,6.9-0.6,10.4-0.9c0.8-0.1,1,0.2,1.3,0.9
		C125,4.9,126.4,8.6,127.8,12.7z"/>
	<path class="st0" d="M276.7,25.4c0-4,0-8.1,0-12.1c0-1-0.2-1.4-1.3-1.3c-1.9,0.1-3.8,0-5.8,0c-0.7,0-0.9-0.1-0.7-0.9
		c0.7-3.1,1.4-6.1,2.1-9.2c0.1-0.6,0.4-0.8,1.1-0.8c7.4,0,14.7,0,22.1,0c0.7,0,1,0.2,1,0.9c0,3,0,6,0,9c0,0.7-0.2,1-0.9,1
		c-1.6,0-3.2,0-4.8,0c-1-0.1-1.2,0.3-1.2,1.2c0,7.7,0,15.4,0,23c0,1.8,0,1.8-1.8,2c-2.9,0.2-5.8,0.4-8.7,0.7c-0.8,0.1-1-0.2-1-1
		C276.8,33.8,276.7,29.6,276.7,25.4z"/>
	<path class="st0" d="M0,26.7c1.3,0.2,2.4,0.4,3.6,0.5c1.4,0.1,2.1-0.5,2.5-1.8c0.3-0.9,0.2-1.7,0.2-2.6c0-6.8,0-13.6,0-20.4
		c0-1,0.2-1.3,1.2-1.4c3.1-0.2,6.2-0.4,9.3-0.7c0.7-0.1,1,0,1,0.8c0,8.6,0,17.2-0.1,25.8c0,1.3-0.3,2.5-0.6,3.8
		c-1.2,4.2-3.9,6.6-8.3,7.2c-1.8,0.3-3.7,0.2-5.5,0.3c-0.6,0-0.9-0.2-1-0.8C1.6,33.8,0.8,30.3,0,26.7z"/>
	<path class="st0" d="M143.3,2.8c2.9-0.9,5.5-1.6,8.1-2.4c0.6-0.2,0.8,0.1,1,0.5c1.5,2.4,1.9,5,1.3,7.8c-0.5,2.6-1.6,5.1-2.6,7.6
		c-0.2,0.4-0.5,0.6-0.9,0.6c-1.8,0-3.7,0-5.5,0c-0.7,0-0.7-0.3-0.6-0.9c0.6-2,1.3-3.9,1.6-6C146.1,7.3,145.9,4.8,143.3,2.8z"/>
	<path class="st0" d="M480,9.4c-2.7,0-4.8-2.1-4.8-4.7s2.1-4.6,4.8-4.6c2.7,0,4.8,2.1,4.8,4.7C484.8,7.3,482.6,9.4,480,9.4z
		 M483.6,4.6c0-2.1-1.6-3.7-3.6-3.7s-3.6,1.6-3.6,3.7s1.6,3.8,3.7,3.7C482.1,8.4,483.6,6.7,483.6,4.6z"/>
	<g>
		<path class="st0" d="M478.4,6.8v-4h1.7c0.4,0,0.7,0,0.9,0.1c0.2,0.1,0.4,0.2,0.5,0.4s0.2,0.4,0.2,0.6c0,0.3-0.1,0.6-0.3,0.7
			c-0.2,0.2-0.4,0.3-0.8,0.4c0.2,0.1,0.3,0.2,0.4,0.3c0.1,0.1,0.3,0.3,0.5,0.7l0.5,0.8h-1L480.5,6c-0.2-0.3-0.4-0.5-0.4-0.6
			c-0.1-0.1-0.2-0.1-0.2-0.2c-0.1,0-0.2,0-0.4,0h-0.2v1.7h-0.9V6.8z M479.2,4.5h0.6c0.4,0,0.6,0,0.7,0s0.2-0.1,0.2-0.2
			c0.1-0.1,0.1-0.2,0.1-0.3c0-0.1,0-0.2-0.1-0.3s-0.2-0.1-0.3-0.2c-0.1,0-0.3,0-0.6,0h-0.6L479.2,4.5L479.2,4.5z"/>
	</g>
</g>
<g>
	<path class="st0" d="M121.5,49.8h-4.2v3.9h4.7v1.2h-6.1V44.1h5.8v1.2h-4.4v3.4h4.2V49.8z"/>
	<path class="st0" d="M125,49.2c0-0.8,0-1.5-0.1-2.1h1.2l0.1,1.2l0,0c0.4-0.7,1.2-1.4,2.4-1.4c1.1,0,1.9,0.6,2.2,1.6l0,0
		c0.2-0.4,0.5-0.8,0.9-1c0.5-0.4,1-0.5,1.7-0.5c1,0,2.5,0.7,2.5,3.4V55h-1.4v-4.4c0-1.5-0.5-2.4-1.7-2.4c-0.8,0-1.4,0.6-1.7,1.3
		c-0.1,0.2-0.1,0.4-0.1,0.7V55h-1.4v-4.6c0-1.2-0.5-2.1-1.6-2.1c-0.9,0-1.5,0.7-1.7,1.4c-0.1,0.2-0.1,0.4-0.1,0.7v4.7H125V49.2z"/>
	<path class="st0" d="M139.6,49.6c0-1,0-1.8-0.1-2.5h1.3l0.1,1.3l0,0c0.6-0.9,1.5-1.5,2.8-1.5c1.9,0,3.3,1.6,3.3,3.9
		c0,2.8-1.7,4.2-3.5,4.2c-1,0-1.9-0.4-2.4-1.2l0,0V58h-1.4v-8.4H139.6z M141,51.7c0,0.2,0,0.4,0.1,0.6c0.3,1,1.1,1.6,2.1,1.6
		c1.5,0,2.4-1.2,2.4-3c0-1.6-0.8-2.9-2.3-2.9c-1,0-1.9,0.7-2.1,1.7c0,0.2-0.1,0.4-0.1,0.6L141,51.7L141,51.7z"/>
	<path class="st0" d="M156.9,50.9c0,2.9-2,4.1-3.9,4.1c-2.1,0-3.7-1.5-3.7-4c0-2.6,1.7-4.1,3.8-4.1
		C155.4,46.9,156.9,48.5,156.9,50.9z M150.8,51c0,1.7,1,3,2.4,3c1.3,0,2.4-1.3,2.4-3c0-1.3-0.7-3-2.3-3
		C151.5,48,150.8,49.5,150.8,51z"/>
	<path class="st0" d="M160.4,47.1l1,3.9c0.2,0.9,0.4,1.7,0.6,2.5l0,0c0.2-0.8,0.4-1.6,0.7-2.4l1.3-4h1.2l1.2,3.9
		c0.3,0.9,0.5,1.7,0.7,2.5l0,0c0.1-0.8,0.3-1.6,0.6-2.5l1.1-3.9h1.4l-2.5,7.7h-1.3l-1.2-3.7c-0.3-0.9-0.5-1.6-0.7-2.5l0,0
		c-0.2,0.9-0.4,1.7-0.7,2.6l-1.2,3.7h-1.3l-2.3-7.7L160.4,47.1L160.4,47.1z"/>
	<path class="st0" d="M173.4,51.2c0,1.9,1.2,2.7,2.7,2.7c1,0,1.6-0.2,2.1-0.4l0.2,1c-0.5,0.2-1.3,0.5-2.6,0.5
		c-2.4,0-3.8-1.6-3.8-3.9s1.4-4.2,3.6-4.2c2.5,0,3.2,2.2,3.2,3.6c0,0.3,0,0.5,0,0.7C178.8,51.2,173.4,51.2,173.4,51.2z M177.6,50.2
		c0-0.9-0.4-2.3-2-2.3c-1.4,0-2,1.3-2.2,2.3H177.6z"/>
	<path class="st0" d="M181.9,49.5c0-0.9,0-1.7-0.1-2.4h1.2v1.5h0.1c0.4-1,1.2-1.7,2.1-1.7c0.2,0,0.3,0,0.4,0v1.3c-0.1,0-0.3,0-0.5,0
		c-1,0-1.7,0.8-1.9,1.8c0,0.2-0.1,0.4-0.1,0.7v4.1h-1.4v-5.3H181.9z"/>
	<path class="st0" d="M190,44.9c0,0.5-0.3,0.9-0.9,0.9c-0.5,0-0.8-0.4-0.8-0.9s0.4-0.9,0.9-0.9S190,44.4,190,44.9z M188.4,54.8v-7.7
		h1.4v7.7H188.4z"/>
	<path class="st0" d="M193.4,49.2c0-0.8,0-1.5-0.1-2.1h1.2l0.1,1.3l0,0c0.4-0.7,1.3-1.5,2.6-1.5c1.1,0,2.7,0.6,2.7,3.3v4.6h-1.4
		v-4.5c0-1.2-0.5-2.3-1.8-2.3c-0.9,0-1.6,0.7-1.9,1.4c-0.1,0.2-0.1,0.4-0.1,0.7v4.7h-1.4L193.4,49.2L193.4,49.2z"/>
	<path class="st0" d="M210.2,47.1c0,0.6-0.1,1.2-0.1,2.1v4.5c0,1.8-0.4,2.9-1.1,3.5c-0.8,0.7-1.8,0.9-2.8,0.9c-0.9,0-2-0.2-2.6-0.6
		l0.4-1.1c0.5,0.3,1.3,0.6,2.3,0.6c1.4,0,2.5-0.8,2.5-2.7v-0.9l0,0c-0.4,0.7-1.3,1.3-2.5,1.3c-1.9,0-3.3-1.6-3.3-3.8
		c0-2.6,1.7-4.1,3.5-4.1c1.3,0,2.1,0.7,2.4,1.3l0,0l0.1-1.2h1.2V47.1z M208.7,50.2c0-0.2,0-0.4-0.1-0.6c-0.3-0.8-0.9-1.5-2-1.5
		c-1.3,0-2.3,1.1-2.3,2.9c0,1.5,0.8,2.8,2.3,2.8c0.9,0,1.6-0.5,2-1.4c0.1-0.2,0.1-0.5,0.1-0.8V50.2z"/>
	<path class="st0" d="M220.1,51.4l-1.1,3.4h-1.4l3.7-10.8h1.7l3.7,10.8h-1.5l-1.2-3.4H220.1z M223.6,50.4l-1.1-3.1
		c-0.2-0.7-0.4-1.3-0.6-2l0,0c-0.2,0.6-0.3,1.3-0.5,2l-1.1,3.1H223.6z"/>
	<path class="st0" d="M229.3,49.5c0-0.9,0-1.7-0.1-2.4h1.2v1.5h0.1c0.4-1,1.2-1.7,2.1-1.7c0.2,0,0.3,0,0.4,0v1.3c-0.1,0-0.3,0-0.5,0
		c-1,0-1.7,0.8-1.9,1.8c0,0.2-0.1,0.4-0.1,0.7v4.1h-1.4v-5.3H229.3z"/>
	<path class="st0" d="M237.8,44.9v2.2h2v1.1h-2v4.2c0,1,0.3,1.5,1.1,1.5c0.4,0,0.6,0,0.8-0.1l0.1,1.1c-0.3,0.1-0.7,0.2-1.2,0.2
		c-0.7,0-1.2-0.2-1.5-0.6c-0.4-0.4-0.5-1.1-0.5-2v-4.2h-1.2v-1.1h1.2v-1.9L237.8,44.9z"/>
	<path class="st0" d="M244.2,44.9c0,0.5-0.3,0.9-0.9,0.9c-0.5,0-0.8-0.4-0.8-0.9s0.4-0.9,0.9-0.9S244.2,44.4,244.2,44.9z
		 M242.7,54.8v-7.7h1.4v7.7H242.7z"/>
	<path class="st0" d="M247.5,53.4c0.4,0.3,1.2,0.6,1.9,0.6c1,0,1.5-0.5,1.5-1.2s-0.4-1-1.4-1.4c-1.4-0.5-2-1.3-2-2.2
		c0-1.2,1-2.3,2.7-2.3c0.8,0,1.5,0.2,1.9,0.5l-0.4,1c-0.3-0.2-0.9-0.4-1.6-0.4c-0.8,0-1.3,0.5-1.3,1.1s0.5,0.9,1.5,1.3
		c1.3,0.5,2,1.2,2,2.3c0,1.4-1.1,2.3-2.9,2.3c-0.8,0-1.6-0.2-2.2-0.5L247.5,53.4z"/>
	<path class="st0" d="M256.9,44.9v2.2h2v1.1h-2v4.2c0,1,0.3,1.5,1.1,1.5c0.4,0,0.6,0,0.8-0.1l0.1,1.1c-0.3,0.1-0.7,0.2-1.2,0.2
		c-0.7,0-1.2-0.2-1.5-0.6c-0.4-0.4-0.5-1.1-0.5-2v-4.2h-1.2v-1.1h1.2v-1.9L256.9,44.9z"/>
	<path class="st0" d="M261.5,53.4c0.4,0.3,1.2,0.6,1.9,0.6c1,0,1.5-0.5,1.5-1.2s-0.4-1-1.4-1.4c-1.4-0.5-2-1.3-2-2.2
		c0-1.2,1-2.3,2.7-2.3c0.8,0,1.5,0.2,1.9,0.5l-0.4,1c-0.3-0.2-0.9-0.4-1.6-0.4c-0.8,0-1.3,0.5-1.3,1.1s0.5,0.9,1.5,1.3
		c1.3,0.5,2,1.2,2,2.3c0,1.4-1.1,2.3-2.9,2.3c-0.8,0-1.6-0.2-2.2-0.5L261.5,53.4z"/>
	<path class="st0" d="M273.8,53.1c0.6,0.4,1.5,0.7,2.5,0.7c1.4,0,2.3-0.8,2.3-1.8s-0.6-1.6-2-2.1c-1.8-0.6-2.8-1.5-2.8-3.1
		c0-1.7,1.4-2.9,3.5-2.9c1.1,0,1.9,0.3,2.4,0.5l-0.4,1.1c-0.4-0.2-1.1-0.5-2-0.5c-1.5,0-2,0.9-2,1.6c0,1,0.7,1.5,2.1,2.1
		c1.8,0.7,2.8,1.6,2.8,3.2c0,1.7-1.2,3.1-3.8,3.1c-1,0-2.2-0.3-2.8-0.7L273.8,53.1z"/>
	<path class="st0" d="M284.6,44.9c0,0.5-0.3,0.9-0.9,0.9c-0.5,0-0.8-0.4-0.8-0.9s0.4-0.9,0.9-0.9C284.3,44,284.6,44.4,284.6,44.9z
		 M283.1,54.8v-7.7h1.4v7.7H283.1z"/>
	<path class="st0" d="M288,49.2c0-0.8,0-1.5-0.1-2.1h1.2l0.1,1.3l0,0c0.4-0.7,1.3-1.5,2.6-1.5c1.1,0,2.7,0.6,2.7,3.3v4.6h-1.4v-4.5
		c0-1.2-0.5-2.3-1.8-2.3c-0.9,0-1.6,0.7-1.9,1.4c-0.1,0.2-0.1,0.4-0.1,0.7v4.7H288V49.2z"/>
	<path class="st0" d="M303.7,54.6c-0.4,0.2-1.2,0.4-2.2,0.4c-2.3,0-3.9-1.6-3.9-4s1.6-4.1,4.2-4.1c0.8,0,1.6,0.2,2,0.4l-0.3,1.1
		c-0.3-0.2-0.9-0.4-1.6-0.4c-1.8,0-2.7,1.3-2.7,2.9c0,1.8,1.2,2.9,2.7,2.9c0.8,0,1.3-0.2,1.7-0.4L303.7,54.6z"/>
	<path class="st0" d="M307.2,51.2c0,1.9,1.2,2.7,2.7,2.7c1,0,1.6-0.2,2.1-0.4l0.2,1c-0.5,0.2-1.3,0.5-2.6,0.5
		c-2.4,0-3.8-1.6-3.8-3.9s1.4-4.2,3.6-4.2c2.5,0,3.2,2.2,3.2,3.6c0,0.3,0,0.5,0,0.7C312.6,51.2,307.2,51.2,307.2,51.2z M311.4,50.2
		c0-0.9-0.4-2.3-2-2.3c-1.4,0-2,1.3-2.2,2.3H311.4z"/>
	<path class="st0" d="M322.9,45.7L322.9,45.7l-1.8,1l-0.3-1.1l2.3-1.2h1.2v10.4h-1.4L322.9,45.7L322.9,45.7z"/>
	<path class="st0" d="M330.1,53.8c0.3,0,0.7,0,1.1,0c0.8-0.1,1.6-0.4,2.2-1c0.7-0.6,1.2-1.5,1.4-2.8l0,0c-0.6,0.7-1.4,1.1-2.4,1.1
		c-1.9,0-3.1-1.4-3.1-3.2c0-2,1.4-3.7,3.6-3.7s3.4,1.7,3.4,4.4c0,2.3-0.8,3.9-1.8,4.9c-0.8,0.8-1.9,1.3-3,1.4
		c-0.5,0.1-1,0.1-1.3,0.1v-1.2H330.1z M330.6,47.9c0,1.3,0.8,2.2,2,2.2c0.9,0,1.7-0.5,2-1.1c0.1-0.1,0.1-0.3,0.1-0.5
		c0-1.8-0.7-3.1-2.1-3.1C331.5,45.3,330.6,46.4,330.6,47.9z"/>
	<path class="st0" d="M344.7,45.4c-0.3,0-0.7,0-1.1,0.1c-2.2,0.4-3.4,2-3.6,3.7l0,0c0.5-0.7,1.4-1.2,2.5-1.2c1.8,0,3.1,1.3,3.1,3.4
		c0,1.9-1.3,3.7-3.5,3.7s-3.7-1.7-3.7-4.4c0-2,0.7-3.7,1.8-4.7c0.9-0.8,2-1.4,3.3-1.5c0.4-0.1,0.8-0.1,1-0.1v1H344.7z M344.3,51.4
		c0-1.5-0.8-2.4-2.1-2.4c-0.8,0-1.6,0.5-2,1.3c-0.1,0.2-0.2,0.4-0.2,0.6c0,1.7,0.8,3,2.3,3C343.5,53.9,344.3,52.9,344.3,51.4z"/>
	<path class="st0" d="M348.1,52.2c0-1.3,0.8-2.2,2.1-2.8l0,0c-1.2-0.5-1.6-1.4-1.6-2.3c0-1.6,1.4-2.8,3.2-2.8c2,0,3,1.3,3,2.6
		c0,0.9-0.4,1.8-1.7,2.4l0,0c1.3,0.5,2.1,1.4,2.1,2.7c0,1.8-1.6,3-3.5,3C349.4,55,348.1,53.7,348.1,52.2z M353.7,52.1
		c0-1.3-0.9-1.9-2.3-2.3c-1.2,0.4-1.9,1.2-1.9,2.1c0,1.1,0.8,2,2.1,2C352.8,54,353.7,53.2,353.7,52.1z M349.8,46.9
		c0,1,0.8,1.6,2,1.9c0.9-0.3,1.6-0.9,1.6-1.9c0-0.8-0.5-1.7-1.8-1.7C350.4,45.3,349.8,46,349.8,46.9z"/>
	<path class="st0" d="M357.8,54c0-0.6,0.4-1,0.9-1c0.6,0,0.9,0.4,0.9,1s-0.4,1-0.9,1C358.2,55,357.8,54.6,357.8,54z M358.2,51.7
		L358,44h1.5l-0.2,7.7H358.2z"/>
</g>
<g>
	<line class="st1" x1="1.6" y1="49.3" x2="110.6" y2="49.3"/>
	<line class="st2" x1="1.6" y1="49.3" x2="110.6" y2="49.3"/>
</g>
<g>
	<line class="st1" x1="365.1" y1="49.3" x2="479.1" y2="49.3"/>
	<line class="st2" x1="365.1" y1="49.3" x2="479.1" y2="49.3"/>
</g>
</svg>
