<svg width="30" height="14" viewBox="0 0 30 14" fill="none" xmlns="http://www.w3.org/2000/svg">
<path fill-rule="evenodd" clip-rule="evenodd" d="M7.3999 0H22.5999C26.3999 0 29.5999 3.1 29.5999 7C29.5999 10.9 26.4999 14 22.5999 14H7.3999C3.4999 14 0.399902 10.9 0.399902 7C0.399902 3.1 3.4999 0 7.3999 0ZM7.3999 1.2C4.1999 1.2 1.5999 3.8 1.5999 7C1.5999 10.2 4.1999 12.8 7.3999 12.8H14.1999L17.2999 1.2H7.3999ZM24.6 4.79961C24.8 4.59961 24.8 4.19961 24.6 3.99961C24.4 3.79961 24 3.79961 23.7999 3.99961L21.6 6.19961L19.4 3.99961C19.2 3.79961 18.8 3.79961 18.6 3.99961C18.4 4.19961 18.4 4.59961 18.6 4.79961L20.7999 6.99961L18.7 9.19961C18.5 9.39961 18.5 9.79961 18.7 9.99961C18.9 10.1996 19.3 10.1996 19.5 9.99961L21.7 7.79961L23.9 9.99961C24.1 10.1996 24.5 10.1996 24.7 9.99961C24.9 9.79961 24.9 9.39961 24.7 9.19961L22.5 6.99961L24.6 4.79961Z" fill="white"/>
<path d="M12.7 4.09922C12.9 4.29922 13 4.69922 12.8 4.89922L8.6 9.79922C8.5 9.89922 8.4 9.99922 8.3 9.99922C8.1 10.0992 7.8 10.0992 7.6 9.89922L5.4 7.69922C5.2 7.49922 5.2 7.09922 5.4 6.89922C5.6 6.69922 6 6.69922 6.2 6.89922L8 8.59922L11.8 4.09922C12 3.89922 12.4 3.89922 12.7 4.09922Z" fill="white"/>
</svg>
